<svg xmlns="http://www.w3.org/2000/svg" version="1.1" xmlns:xlink="http://www.w3.org/1999/xlink" xmlns:svgjs="http://svgjs.dev/svgjs" viewBox="0 0 800 800" opacity="0.3" width="800" height="800"><g stroke-width="0.5" stroke="hsla(0, 0%, 80%, 1.00)" fill="none"><rect width="5" height="5" x="-2.5" y="-2.5" fill="hsla(0, 0%, 80%, 1.00)" stroke="none" transform="rotate(45, 0, 0)"></rect><rect width="5" height="5" x="41.94444444444444" y="-2.5" fill="hsla(0, 0%, 80%, 1.00)" stroke="none" transform="rotate(45, 44.44444444444444, 0)"></rect><rect width="5" height="5" x="86.38888888888889" y="-2.5" fill="hsla(0, 0%, 80%, 1.00)" stroke="none" transform="rotate(45, 88.88888888888889, 0)"></rect><rect width="5" height="5" x="130.83333333333331" y="-2.5" fill="hsla(0, 0%, 80%, 1.00)" stroke="none" transform="rotate(45, 133.33333333333331, 0)"></rect><rect width="5" height="5" x="175.27777777777777" y="-2.5" fill="hsla(0, 0%, 80%, 1.00)" stroke="none" transform="rotate(45, 177.77777777777777, 0)"></rect><rect width="5" height="5" x="219.72222222222223" y="-2.5" fill="hsla(0, 0%, 80%, 1.00)" stroke="none" transform="rotate(45, 222.22222222222223, 0)"></rect><rect width="5" height="5" x="264.1666666666667" y="-2.5" fill="hsla(0, 0%, 80%, 1.00)" stroke="none" transform="rotate(45, 266.6666666666667, 0)"></rect><rect width="5" height="5" x="308.61111111111114" y="-2.5" fill="hsla(0, 0%, 80%, 1.00)" stroke="none" transform="rotate(45, 311.11111111111114, 0)"></rect><rect width="5" height="5" x="353.0555555555556" y="-2.5" fill="hsla(0, 0%, 80%, 1.00)" stroke="none" transform="rotate(45, 355.5555555555556, 0)"></rect><rect width="5" height="5" x="397.50000000000006" y="-2.5" fill="hsla(0, 0%, 80%, 1.00)" stroke="none" transform="rotate(45, 400.00000000000006, 0)"></rect><rect width="5" height="5" x="441.9444444444445" y="-2.5" fill="hsla(0, 0%, 80%, 1.00)" stroke="none" transform="rotate(45, 444.4444444444445, 0)"></rect><rect width="5" height="5" x="486.38888888888897" y="-2.5" fill="hsla(0, 0%, 80%, 1.00)" stroke="none" transform="rotate(45, 488.88888888888897, 0)"></rect><rect width="5" height="5" x="530.8333333333334" y="-2.5" fill="hsla(0, 0%, 80%, 1.00)" stroke="none" transform="rotate(45, 533.3333333333334, 0)"></rect><rect width="5" height="5" x="575.2777777777778" y="-2.5" fill="hsla(0, 0%, 80%, 1.00)" stroke="none" transform="rotate(45, 577.7777777777778, 0)"></rect><rect width="5" height="5" x="619.7222222222223" y="-2.5" fill="hsla(0, 0%, 80%, 1.00)" stroke="none" transform="rotate(45, 622.2222222222223, 0)"></rect><rect width="5" height="5" x="664.1666666666667" y="-2.5" fill="hsla(0, 0%, 80%, 1.00)" stroke="none" transform="rotate(45, 666.6666666666667, 0)"></rect><rect width="5" height="5" x="708.6111111111112" y="-2.5" fill="hsla(0, 0%, 80%, 1.00)" stroke="none" transform="rotate(45, 711.1111111111112, 0)"></rect><rect width="5" height="5" x="753.0555555555557" y="-2.5" fill="hsla(0, 0%, 80%, 1.00)" stroke="none" transform="rotate(45, 755.5555555555557, 0)"></rect><rect width="5" height="5" x="797.5000000000001" y="-2.5" fill="hsla(0, 0%, 80%, 1.00)" stroke="none" transform="rotate(45, 800.0000000000001, 0)"></rect><rect width="5" height="5" x="-2.5" y="41.94444444444444" fill="hsla(0, 0%, 80%, 1.00)" stroke="none" transform="rotate(45, 0, 44.44444444444444)"></rect><rect width="5" height="5" x="41.94444444444444" y="41.94444444444444" fill="hsla(0, 0%, 80%, 1.00)" stroke="none" transform="rotate(45, 44.44444444444444, 44.44444444444444)"></rect><rect width="5" height="5" x="86.38888888888889" y="41.94444444444444" fill="hsla(0, 0%, 80%, 1.00)" stroke="none" transform="rotate(45, 88.88888888888889, 44.44444444444444)"></rect><rect width="5" height="5" x="130.83333333333331" y="41.94444444444444" fill="hsla(0, 0%, 80%, 1.00)" stroke="none" transform="rotate(45, 133.33333333333331, 44.44444444444444)"></rect><rect width="5" height="5" x="175.27777777777777" y="41.94444444444444" fill="hsla(0, 0%, 80%, 1.00)" stroke="none" transform="rotate(45, 177.77777777777777, 44.44444444444444)"></rect><rect width="5" height="5" x="219.72222222222223" y="41.94444444444444" fill="hsla(0, 0%, 80%, 1.00)" stroke="none" transform="rotate(45, 222.22222222222223, 44.44444444444444)"></rect><rect width="5" height="5" x="264.1666666666667" y="41.94444444444444" fill="hsla(0, 0%, 80%, 1.00)" stroke="none" transform="rotate(45, 266.6666666666667, 44.44444444444444)"></rect><rect width="5" height="5" x="308.61111111111114" y="41.94444444444444" fill="hsla(0, 0%, 80%, 1.00)" stroke="none" transform="rotate(45, 311.11111111111114, 44.44444444444444)"></rect><rect width="5" height="5" x="353.0555555555556" y="41.94444444444444" fill="hsla(0, 0%, 80%, 1.00)" stroke="none" transform="rotate(45, 355.5555555555556, 44.44444444444444)"></rect><rect width="5" height="5" x="397.50000000000006" y="41.94444444444444" fill="hsla(0, 0%, 80%, 1.00)" stroke="none" transform="rotate(45, 400.00000000000006, 44.44444444444444)"></rect><rect width="5" height="5" x="441.9444444444445" y="41.94444444444444" fill="hsla(0, 0%, 80%, 1.00)" stroke="none" transform="rotate(45, 444.4444444444445, 44.44444444444444)"></rect><rect width="5" height="5" x="486.38888888888897" y="41.94444444444444" fill="hsla(0, 0%, 80%, 1.00)" stroke="none" transform="rotate(45, 488.88888888888897, 44.44444444444444)"></rect><rect width="5" height="5" x="530.8333333333334" y="41.94444444444444" fill="hsla(0, 0%, 80%, 1.00)" stroke="none" transform="rotate(45, 533.3333333333334, 44.44444444444444)"></rect><rect width="5" height="5" x="575.2777777777778" y="41.94444444444444" fill="hsla(0, 0%, 80%, 1.00)" stroke="none" transform="rotate(45, 577.7777777777778, 44.44444444444444)"></rect><rect width="5" height="5" x="619.7222222222223" y="41.94444444444444" fill="hsla(0, 0%, 80%, 1.00)" stroke="none" transform="rotate(45, 622.2222222222223, 44.44444444444444)"></rect><rect width="5" height="5" x="664.1666666666667" y="41.94444444444444" fill="hsla(0, 0%, 80%, 1.00)" stroke="none" transform="rotate(45, 666.6666666666667, 44.44444444444444)"></rect><rect width="5" height="5" x="708.6111111111112" y="41.94444444444444" fill="hsla(0, 0%, 80%, 1.00)" stroke="none" transform="rotate(45, 711.1111111111112, 44.44444444444444)"></rect><rect width="5" height="5" x="753.0555555555557" y="41.94444444444444" fill="hsla(0, 0%, 80%, 1.00)" stroke="none" transform="rotate(45, 755.5555555555557, 44.44444444444444)"></rect><rect width="5" height="5" x="797.5000000000001" y="41.94444444444444" fill="hsla(0, 0%, 80%, 1.00)" stroke="none" transform="rotate(45, 800.0000000000001, 44.44444444444444)"></rect><rect width="5" height="5" x="-2.5" y="86.38888888888889" fill="hsla(0, 0%, 80%, 1.00)" stroke="none" transform="rotate(45, 0, 88.88888888888889)"></rect><rect width="5" height="5" x="41.94444444444444" y="86.38888888888889" fill="hsla(0, 0%, 80%, 1.00)" stroke="none" transform="rotate(45, 44.44444444444444, 88.88888888888889)"></rect><rect width="5" height="5" x="86.38888888888889" y="86.38888888888889" fill="hsla(0, 0%, 80%, 1.00)" stroke="none" transform="rotate(45, 88.88888888888889, 88.88888888888889)"></rect><rect width="5" height="5" x="130.83333333333331" y="86.38888888888889" fill="hsla(0, 0%, 80%, 1.00)" stroke="none" transform="rotate(45, 133.33333333333331, 88.88888888888889)"></rect><rect width="5" height="5" x="175.27777777777777" y="86.38888888888889" fill="hsla(0, 0%, 80%, 1.00)" stroke="none" transform="rotate(45, 177.77777777777777, 88.88888888888889)"></rect><rect width="5" height="5" x="219.72222222222223" y="86.38888888888889" fill="hsla(0, 0%, 80%, 1.00)" stroke="none" transform="rotate(45, 222.22222222222223, 88.88888888888889)"></rect><rect width="5" height="5" x="264.1666666666667" y="86.38888888888889" fill="hsla(0, 0%, 80%, 1.00)" stroke="none" transform="rotate(45, 266.6666666666667, 88.88888888888889)"></rect><rect width="5" height="5" x="308.61111111111114" y="86.38888888888889" fill="hsla(0, 0%, 80%, 1.00)" stroke="none" transform="rotate(45, 311.11111111111114, 88.88888888888889)"></rect><rect width="5" height="5" x="353.0555555555556" y="86.38888888888889" fill="hsla(0, 0%, 80%, 1.00)" stroke="none" transform="rotate(45, 355.5555555555556, 88.88888888888889)"></rect><rect width="5" height="5" x="397.50000000000006" y="86.38888888888889" fill="hsla(0, 0%, 80%, 1.00)" stroke="none" transform="rotate(45, 400.00000000000006, 88.88888888888889)"></rect><rect width="5" height="5" x="441.9444444444445" y="86.38888888888889" fill="hsla(0, 0%, 80%, 1.00)" stroke="none" transform="rotate(45, 444.4444444444445, 88.88888888888889)"></rect><rect width="5" height="5" x="486.38888888888897" y="86.38888888888889" fill="hsla(0, 0%, 80%, 1.00)" stroke="none" transform="rotate(45, 488.88888888888897, 88.88888888888889)"></rect><rect width="5" height="5" x="530.8333333333334" y="86.38888888888889" fill="hsla(0, 0%, 80%, 1.00)" stroke="none" transform="rotate(45, 533.3333333333334, 88.88888888888889)"></rect><rect width="5" height="5" x="575.2777777777778" y="86.38888888888889" fill="hsla(0, 0%, 80%, 1.00)" stroke="none" transform="rotate(45, 577.7777777777778, 88.88888888888889)"></rect><rect width="5" height="5" x="619.7222222222223" y="86.38888888888889" fill="hsla(0, 0%, 80%, 1.00)" stroke="none" transform="rotate(45, 622.2222222222223, 88.88888888888889)"></rect><rect width="5" height="5" x="664.1666666666667" y="86.38888888888889" fill="hsla(0, 0%, 80%, 1.00)" stroke="none" transform="rotate(45, 666.6666666666667, 88.88888888888889)"></rect><rect width="5" height="5" x="708.6111111111112" y="86.38888888888889" fill="hsla(0, 0%, 80%, 1.00)" stroke="none" transform="rotate(45, 711.1111111111112, 88.88888888888889)"></rect><rect width="5" height="5" x="753.0555555555557" y="86.38888888888889" fill="hsla(0, 0%, 80%, 1.00)" stroke="none" transform="rotate(45, 755.5555555555557, 88.88888888888889)"></rect><rect width="5" height="5" x="797.5000000000001" y="86.38888888888889" fill="hsla(0, 0%, 80%, 1.00)" stroke="none" transform="rotate(45, 800.0000000000001, 88.88888888888889)"></rect><rect width="5" height="5" x="-2.5" y="130.83333333333331" fill="hsla(0, 0%, 80%, 1.00)" stroke="none" transform="rotate(45, 0, 133.33333333333331)"></rect><rect width="5" height="5" x="41.94444444444444" y="130.83333333333331" fill="hsla(0, 0%, 80%, 1.00)" stroke="none" transform="rotate(45, 44.44444444444444, 133.33333333333331)"></rect><rect width="5" height="5" x="86.38888888888889" y="130.83333333333331" fill="hsla(0, 0%, 80%, 1.00)" stroke="none" transform="rotate(45, 88.88888888888889, 133.33333333333331)"></rect><rect width="5" height="5" x="130.83333333333331" y="130.83333333333331" fill="hsla(0, 0%, 80%, 1.00)" stroke="none" transform="rotate(45, 133.33333333333331, 133.33333333333331)"></rect><rect width="5" height="5" x="175.27777777777777" y="130.83333333333331" fill="hsla(0, 0%, 80%, 1.00)" stroke="none" transform="rotate(45, 177.77777777777777, 133.33333333333331)"></rect><rect width="5" height="5" x="219.72222222222223" y="130.83333333333331" fill="hsla(0, 0%, 80%, 1.00)" stroke="none" transform="rotate(45, 222.22222222222223, 133.33333333333331)"></rect><rect width="5" height="5" x="264.1666666666667" y="130.83333333333331" fill="hsla(0, 0%, 80%, 1.00)" stroke="none" transform="rotate(45, 266.6666666666667, 133.33333333333331)"></rect><rect width="5" height="5" x="308.61111111111114" y="130.83333333333331" fill="hsla(0, 0%, 80%, 1.00)" stroke="none" transform="rotate(45, 311.11111111111114, 133.33333333333331)"></rect><rect width="5" height="5" x="353.0555555555556" y="130.83333333333331" fill="hsla(0, 0%, 80%, 1.00)" stroke="none" transform="rotate(45, 355.5555555555556, 133.33333333333331)"></rect><rect width="5" height="5" x="397.50000000000006" y="130.83333333333331" fill="hsla(0, 0%, 80%, 1.00)" stroke="none" transform="rotate(45, 400.00000000000006, 133.33333333333331)"></rect><rect width="5" height="5" x="441.9444444444445" y="130.83333333333331" fill="hsla(0, 0%, 80%, 1.00)" stroke="none" transform="rotate(45, 444.4444444444445, 133.33333333333331)"></rect><rect width="5" height="5" x="486.38888888888897" y="130.83333333333331" fill="hsla(0, 0%, 80%, 1.00)" stroke="none" transform="rotate(45, 488.88888888888897, 133.33333333333331)"></rect><rect width="5" height="5" x="530.8333333333334" y="130.83333333333331" fill="hsla(0, 0%, 80%, 1.00)" stroke="none" transform="rotate(45, 533.3333333333334, 133.33333333333331)"></rect><rect width="5" height="5" x="575.2777777777778" y="130.83333333333331" fill="hsla(0, 0%, 80%, 1.00)" stroke="none" transform="rotate(45, 577.7777777777778, 133.33333333333331)"></rect><rect width="5" height="5" x="619.7222222222223" y="130.83333333333331" fill="hsla(0, 0%, 80%, 1.00)" stroke="none" transform="rotate(45, 622.2222222222223, 133.33333333333331)"></rect><rect width="5" height="5" x="664.1666666666667" y="130.83333333333331" fill="hsla(0, 0%, 80%, 1.00)" stroke="none" transform="rotate(45, 666.6666666666667, 133.33333333333331)"></rect><rect width="5" height="5" x="708.6111111111112" y="130.83333333333331" fill="hsla(0, 0%, 80%, 1.00)" stroke="none" transform="rotate(45, 711.1111111111112, 133.33333333333331)"></rect><rect width="5" height="5" x="753.0555555555557" y="130.83333333333331" fill="hsla(0, 0%, 80%, 1.00)" stroke="none" transform="rotate(45, 755.5555555555557, 133.33333333333331)"></rect><rect width="5" height="5" x="797.5000000000001" y="130.83333333333331" fill="hsla(0, 0%, 80%, 1.00)" stroke="none" transform="rotate(45, 800.0000000000001, 133.33333333333331)"></rect><rect width="5" height="5" x="-2.5" y="175.27777777777777" fill="hsla(0, 0%, 80%, 1.00)" stroke="none" transform="rotate(45, 0, 177.77777777777777)"></rect><rect width="5" height="5" x="41.94444444444444" y="175.27777777777777" fill="hsla(0, 0%, 80%, 1.00)" stroke="none" transform="rotate(45, 44.44444444444444, 177.77777777777777)"></rect><rect width="5" height="5" x="86.38888888888889" y="175.27777777777777" fill="hsla(0, 0%, 80%, 1.00)" stroke="none" transform="rotate(45, 88.88888888888889, 177.77777777777777)"></rect><rect width="5" height="5" x="130.83333333333331" y="175.27777777777777" fill="hsla(0, 0%, 80%, 1.00)" stroke="none" transform="rotate(45, 133.33333333333331, 177.77777777777777)"></rect><rect width="5" height="5" x="175.27777777777777" y="175.27777777777777" fill="hsla(0, 0%, 80%, 1.00)" stroke="none" transform="rotate(45, 177.77777777777777, 177.77777777777777)"></rect><rect width="5" height="5" x="219.72222222222223" y="175.27777777777777" fill="hsla(0, 0%, 80%, 1.00)" stroke="none" transform="rotate(45, 222.22222222222223, 177.77777777777777)"></rect><rect width="5" height="5" x="264.1666666666667" y="175.27777777777777" fill="hsla(0, 0%, 80%, 1.00)" stroke="none" transform="rotate(45, 266.6666666666667, 177.77777777777777)"></rect><rect width="5" height="5" x="308.61111111111114" y="175.27777777777777" fill="hsla(0, 0%, 80%, 1.00)" stroke="none" transform="rotate(45, 311.11111111111114, 177.77777777777777)"></rect><rect width="5" height="5" x="353.0555555555556" y="175.27777777777777" fill="hsla(0, 0%, 80%, 1.00)" stroke="none" transform="rotate(45, 355.5555555555556, 177.77777777777777)"></rect><rect width="5" height="5" x="397.50000000000006" y="175.27777777777777" fill="hsla(0, 0%, 80%, 1.00)" stroke="none" transform="rotate(45, 400.00000000000006, 177.77777777777777)"></rect><rect width="5" height="5" x="441.9444444444445" y="175.27777777777777" fill="hsla(0, 0%, 80%, 1.00)" stroke="none" transform="rotate(45, 444.4444444444445, 177.77777777777777)"></rect><rect width="5" height="5" x="486.38888888888897" y="175.27777777777777" fill="hsla(0, 0%, 80%, 1.00)" stroke="none" transform="rotate(45, 488.88888888888897, 177.77777777777777)"></rect><rect width="5" height="5" x="530.8333333333334" y="175.27777777777777" fill="hsla(0, 0%, 80%, 1.00)" stroke="none" transform="rotate(45, 533.3333333333334, 177.77777777777777)"></rect><rect width="5" height="5" x="575.2777777777778" y="175.27777777777777" fill="hsla(0, 0%, 80%, 1.00)" stroke="none" transform="rotate(45, 577.7777777777778, 177.77777777777777)"></rect><rect width="5" height="5" x="619.7222222222223" y="175.27777777777777" fill="hsla(0, 0%, 80%, 1.00)" stroke="none" transform="rotate(45, 622.2222222222223, 177.77777777777777)"></rect><rect width="5" height="5" x="664.1666666666667" y="175.27777777777777" fill="hsla(0, 0%, 80%, 1.00)" stroke="none" transform="rotate(45, 666.6666666666667, 177.77777777777777)"></rect><rect width="5" height="5" x="708.6111111111112" y="175.27777777777777" fill="hsla(0, 0%, 80%, 1.00)" stroke="none" transform="rotate(45, 711.1111111111112, 177.77777777777777)"></rect><rect width="5" height="5" x="753.0555555555557" y="175.27777777777777" fill="hsla(0, 0%, 80%, 1.00)" stroke="none" transform="rotate(45, 755.5555555555557, 177.77777777777777)"></rect><rect width="5" height="5" x="797.5000000000001" y="175.27777777777777" fill="hsla(0, 0%, 80%, 1.00)" stroke="none" transform="rotate(45, 800.0000000000001, 177.77777777777777)"></rect><rect width="5" height="5" x="-2.5" y="219.72222222222223" fill="hsla(0, 0%, 80%, 1.00)" stroke="none" transform="rotate(45, 0, 222.22222222222223)"></rect><rect width="5" height="5" x="41.94444444444444" y="219.72222222222223" fill="hsla(0, 0%, 80%, 1.00)" stroke="none" transform="rotate(45, 44.44444444444444, 222.22222222222223)"></rect><rect width="5" height="5" x="86.38888888888889" y="219.72222222222223" fill="hsla(0, 0%, 80%, 1.00)" stroke="none" transform="rotate(45, 88.88888888888889, 222.22222222222223)"></rect><rect width="5" height="5" x="130.83333333333331" y="219.72222222222223" fill="hsla(0, 0%, 80%, 1.00)" stroke="none" transform="rotate(45, 133.33333333333331, 222.22222222222223)"></rect><rect width="5" height="5" x="175.27777777777777" y="219.72222222222223" fill="hsla(0, 0%, 80%, 1.00)" stroke="none" transform="rotate(45, 177.77777777777777, 222.22222222222223)"></rect><rect width="5" height="5" x="219.72222222222223" y="219.72222222222223" fill="hsla(0, 0%, 80%, 1.00)" stroke="none" transform="rotate(45, 222.22222222222223, 222.22222222222223)"></rect><rect width="5" height="5" x="264.1666666666667" y="219.72222222222223" fill="hsla(0, 0%, 80%, 1.00)" stroke="none" transform="rotate(45, 266.6666666666667, 222.22222222222223)"></rect><rect width="5" height="5" x="308.61111111111114" y="219.72222222222223" fill="hsla(0, 0%, 80%, 1.00)" stroke="none" transform="rotate(45, 311.11111111111114, 222.22222222222223)"></rect><rect width="5" height="5" x="353.0555555555556" y="219.72222222222223" fill="hsla(0, 0%, 80%, 1.00)" stroke="none" transform="rotate(45, 355.5555555555556, 222.22222222222223)"></rect><rect width="5" height="5" x="397.50000000000006" y="219.72222222222223" fill="hsla(0, 0%, 80%, 1.00)" stroke="none" transform="rotate(45, 400.00000000000006, 222.22222222222223)"></rect><rect width="5" height="5" x="441.9444444444445" y="219.72222222222223" fill="hsla(0, 0%, 80%, 1.00)" stroke="none" transform="rotate(45, 444.4444444444445, 222.22222222222223)"></rect><rect width="5" height="5" x="486.38888888888897" y="219.72222222222223" fill="hsla(0, 0%, 80%, 1.00)" stroke="none" transform="rotate(45, 488.88888888888897, 222.22222222222223)"></rect><rect width="5" height="5" x="530.8333333333334" y="219.72222222222223" fill="hsla(0, 0%, 80%, 1.00)" stroke="none" transform="rotate(45, 533.3333333333334, 222.22222222222223)"></rect><rect width="5" height="5" x="575.2777777777778" y="219.72222222222223" fill="hsla(0, 0%, 80%, 1.00)" stroke="none" transform="rotate(45, 577.7777777777778, 222.22222222222223)"></rect><rect width="5" height="5" x="619.7222222222223" y="219.72222222222223" fill="hsla(0, 0%, 80%, 1.00)" stroke="none" transform="rotate(45, 622.2222222222223, 222.22222222222223)"></rect><rect width="5" height="5" x="664.1666666666667" y="219.72222222222223" fill="hsla(0, 0%, 80%, 1.00)" stroke="none" transform="rotate(45, 666.6666666666667, 222.22222222222223)"></rect><rect width="5" height="5" x="708.6111111111112" y="219.72222222222223" fill="hsla(0, 0%, 80%, 1.00)" stroke="none" transform="rotate(45, 711.1111111111112, 222.22222222222223)"></rect><rect width="5" height="5" x="753.0555555555557" y="219.72222222222223" fill="hsla(0, 0%, 80%, 1.00)" stroke="none" transform="rotate(45, 755.5555555555557, 222.22222222222223)"></rect><rect width="5" height="5" x="797.5000000000001" y="219.72222222222223" fill="hsla(0, 0%, 80%, 1.00)" stroke="none" transform="rotate(45, 800.0000000000001, 222.22222222222223)"></rect><rect width="5" height="5" x="-2.5" y="264.1666666666667" fill="hsla(0, 0%, 80%, 1.00)" stroke="none" transform="rotate(45, 0, 266.6666666666667)"></rect><rect width="5" height="5" x="41.94444444444444" y="264.1666666666667" fill="hsla(0, 0%, 80%, 1.00)" stroke="none" transform="rotate(45, 44.44444444444444, 266.6666666666667)"></rect><rect width="5" height="5" x="86.38888888888889" y="264.1666666666667" fill="hsla(0, 0%, 80%, 1.00)" stroke="none" transform="rotate(45, 88.88888888888889, 266.6666666666667)"></rect><rect width="5" height="5" x="130.83333333333331" y="264.1666666666667" fill="hsla(0, 0%, 80%, 1.00)" stroke="none" transform="rotate(45, 133.33333333333331, 266.6666666666667)"></rect><rect width="5" height="5" x="175.27777777777777" y="264.1666666666667" fill="hsla(0, 0%, 80%, 1.00)" stroke="none" transform="rotate(45, 177.77777777777777, 266.6666666666667)"></rect><rect width="5" height="5" x="219.72222222222223" y="264.1666666666667" fill="hsla(0, 0%, 80%, 1.00)" stroke="none" transform="rotate(45, 222.22222222222223, 266.6666666666667)"></rect><rect width="5" height="5" x="264.1666666666667" y="264.1666666666667" fill="hsla(0, 0%, 80%, 1.00)" stroke="none" transform="rotate(45, 266.6666666666667, 266.6666666666667)"></rect><rect width="5" height="5" x="308.61111111111114" y="264.1666666666667" fill="hsla(0, 0%, 80%, 1.00)" stroke="none" transform="rotate(45, 311.11111111111114, 266.6666666666667)"></rect><rect width="5" height="5" x="353.0555555555556" y="264.1666666666667" fill="hsla(0, 0%, 80%, 1.00)" stroke="none" transform="rotate(45, 355.5555555555556, 266.6666666666667)"></rect><rect width="5" height="5" x="397.50000000000006" y="264.1666666666667" fill="hsla(0, 0%, 80%, 1.00)" stroke="none" transform="rotate(45, 400.00000000000006, 266.6666666666667)"></rect><rect width="5" height="5" x="441.9444444444445" y="264.1666666666667" fill="hsla(0, 0%, 80%, 1.00)" stroke="none" transform="rotate(45, 444.4444444444445, 266.6666666666667)"></rect><rect width="5" height="5" x="486.38888888888897" y="264.1666666666667" fill="hsla(0, 0%, 80%, 1.00)" stroke="none" transform="rotate(45, 488.88888888888897, 266.6666666666667)"></rect><rect width="5" height="5" x="530.8333333333334" y="264.1666666666667" fill="hsla(0, 0%, 80%, 1.00)" stroke="none" transform="rotate(45, 533.3333333333334, 266.6666666666667)"></rect><rect width="5" height="5" x="575.2777777777778" y="264.1666666666667" fill="hsla(0, 0%, 80%, 1.00)" stroke="none" transform="rotate(45, 577.7777777777778, 266.6666666666667)"></rect><rect width="5" height="5" x="619.7222222222223" y="264.1666666666667" fill="hsla(0, 0%, 80%, 1.00)" stroke="none" transform="rotate(45, 622.2222222222223, 266.6666666666667)"></rect><rect width="5" height="5" x="664.1666666666667" y="264.1666666666667" fill="hsla(0, 0%, 80%, 1.00)" stroke="none" transform="rotate(45, 666.6666666666667, 266.6666666666667)"></rect><rect width="5" height="5" x="708.6111111111112" y="264.1666666666667" fill="hsla(0, 0%, 80%, 1.00)" stroke="none" transform="rotate(45, 711.1111111111112, 266.6666666666667)"></rect><rect width="5" height="5" x="753.0555555555557" y="264.1666666666667" fill="hsla(0, 0%, 80%, 1.00)" stroke="none" transform="rotate(45, 755.5555555555557, 266.6666666666667)"></rect><rect width="5" height="5" x="797.5000000000001" y="264.1666666666667" fill="hsla(0, 0%, 80%, 1.00)" stroke="none" transform="rotate(45, 800.0000000000001, 266.6666666666667)"></rect><rect width="5" height="5" x="-2.5" y="308.61111111111114" fill="hsla(0, 0%, 80%, 1.00)" stroke="none" transform="rotate(45, 0, 311.11111111111114)"></rect><rect width="5" height="5" x="41.94444444444444" y="308.61111111111114" fill="hsla(0, 0%, 80%, 1.00)" stroke="none" transform="rotate(45, 44.44444444444444, 311.11111111111114)"></rect><rect width="5" height="5" x="86.38888888888889" y="308.61111111111114" fill="hsla(0, 0%, 80%, 1.00)" stroke="none" transform="rotate(45, 88.88888888888889, 311.11111111111114)"></rect><rect width="5" height="5" x="130.83333333333331" y="308.61111111111114" fill="hsla(0, 0%, 80%, 1.00)" stroke="none" transform="rotate(45, 133.33333333333331, 311.11111111111114)"></rect><rect width="5" height="5" x="175.27777777777777" y="308.61111111111114" fill="hsla(0, 0%, 80%, 1.00)" stroke="none" transform="rotate(45, 177.77777777777777, 311.11111111111114)"></rect><rect width="5" height="5" x="219.72222222222223" y="308.61111111111114" fill="hsla(0, 0%, 80%, 1.00)" stroke="none" transform="rotate(45, 222.22222222222223, 311.11111111111114)"></rect><rect width="5" height="5" x="264.1666666666667" y="308.61111111111114" fill="hsla(0, 0%, 80%, 1.00)" stroke="none" transform="rotate(45, 266.6666666666667, 311.11111111111114)"></rect><rect width="5" height="5" x="308.61111111111114" y="308.61111111111114" fill="hsla(0, 0%, 80%, 1.00)" stroke="none" transform="rotate(45, 311.11111111111114, 311.11111111111114)"></rect><rect width="5" height="5" x="353.0555555555556" y="308.61111111111114" fill="hsla(0, 0%, 80%, 1.00)" stroke="none" transform="rotate(45, 355.5555555555556, 311.11111111111114)"></rect><rect width="5" height="5" x="397.50000000000006" y="308.61111111111114" fill="hsla(0, 0%, 80%, 1.00)" stroke="none" transform="rotate(45, 400.00000000000006, 311.11111111111114)"></rect><rect width="5" height="5" x="441.9444444444445" y="308.61111111111114" fill="hsla(0, 0%, 80%, 1.00)" stroke="none" transform="rotate(45, 444.4444444444445, 311.11111111111114)"></rect><rect width="5" height="5" x="486.38888888888897" y="308.61111111111114" fill="hsla(0, 0%, 80%, 1.00)" stroke="none" transform="rotate(45, 488.88888888888897, 311.11111111111114)"></rect><rect width="5" height="5" x="530.8333333333334" y="308.61111111111114" fill="hsla(0, 0%, 80%, 1.00)" stroke="none" transform="rotate(45, 533.3333333333334, 311.11111111111114)"></rect><rect width="5" height="5" x="575.2777777777778" y="308.61111111111114" fill="hsla(0, 0%, 80%, 1.00)" stroke="none" transform="rotate(45, 577.7777777777778, 311.11111111111114)"></rect><rect width="5" height="5" x="619.7222222222223" y="308.61111111111114" fill="hsla(0, 0%, 80%, 1.00)" stroke="none" transform="rotate(45, 622.2222222222223, 311.11111111111114)"></rect><rect width="5" height="5" x="664.1666666666667" y="308.61111111111114" fill="hsla(0, 0%, 80%, 1.00)" stroke="none" transform="rotate(45, 666.6666666666667, 311.11111111111114)"></rect><rect width="5" height="5" x="708.6111111111112" y="308.61111111111114" fill="hsla(0, 0%, 80%, 1.00)" stroke="none" transform="rotate(45, 711.1111111111112, 311.11111111111114)"></rect><rect width="5" height="5" x="753.0555555555557" y="308.61111111111114" fill="hsla(0, 0%, 80%, 1.00)" stroke="none" transform="rotate(45, 755.5555555555557, 311.11111111111114)"></rect><rect width="5" height="5" x="797.5000000000001" y="308.61111111111114" fill="hsla(0, 0%, 80%, 1.00)" stroke="none" transform="rotate(45, 800.0000000000001, 311.11111111111114)"></rect><rect width="5" height="5" x="-2.5" y="353.0555555555556" fill="hsla(0, 0%, 80%, 1.00)" stroke="none" transform="rotate(45, 0, 355.5555555555556)"></rect><rect width="5" height="5" x="41.94444444444444" y="353.0555555555556" fill="hsla(0, 0%, 80%, 1.00)" stroke="none" transform="rotate(45, 44.44444444444444, 355.5555555555556)"></rect><rect width="5" height="5" x="86.38888888888889" y="353.0555555555556" fill="hsla(0, 0%, 80%, 1.00)" stroke="none" transform="rotate(45, 88.88888888888889, 355.5555555555556)"></rect><rect width="5" height="5" x="130.83333333333331" y="353.0555555555556" fill="hsla(0, 0%, 80%, 1.00)" stroke="none" transform="rotate(45, 133.33333333333331, 355.5555555555556)"></rect><rect width="5" height="5" x="175.27777777777777" y="353.0555555555556" fill="hsla(0, 0%, 80%, 1.00)" stroke="none" transform="rotate(45, 177.77777777777777, 355.5555555555556)"></rect><rect width="5" height="5" x="219.72222222222223" y="353.0555555555556" fill="hsla(0, 0%, 80%, 1.00)" stroke="none" transform="rotate(45, 222.22222222222223, 355.5555555555556)"></rect><rect width="5" height="5" x="264.1666666666667" y="353.0555555555556" fill="hsla(0, 0%, 80%, 1.00)" stroke="none" transform="rotate(45, 266.6666666666667, 355.5555555555556)"></rect><rect width="5" height="5" x="308.61111111111114" y="353.0555555555556" fill="hsla(0, 0%, 80%, 1.00)" stroke="none" transform="rotate(45, 311.11111111111114, 355.5555555555556)"></rect><rect width="5" height="5" x="353.0555555555556" y="353.0555555555556" fill="hsla(0, 0%, 80%, 1.00)" stroke="none" transform="rotate(45, 355.5555555555556, 355.5555555555556)"></rect><rect width="5" height="5" x="397.50000000000006" y="353.0555555555556" fill="hsla(0, 0%, 80%, 1.00)" stroke="none" transform="rotate(45, 400.00000000000006, 355.5555555555556)"></rect><rect width="5" height="5" x="441.9444444444445" y="353.0555555555556" fill="hsla(0, 0%, 80%, 1.00)" stroke="none" transform="rotate(45, 444.4444444444445, 355.5555555555556)"></rect><rect width="5" height="5" x="486.38888888888897" y="353.0555555555556" fill="hsla(0, 0%, 80%, 1.00)" stroke="none" transform="rotate(45, 488.88888888888897, 355.5555555555556)"></rect><rect width="5" height="5" x="530.8333333333334" y="353.0555555555556" fill="hsla(0, 0%, 80%, 1.00)" stroke="none" transform="rotate(45, 533.3333333333334, 355.5555555555556)"></rect><rect width="5" height="5" x="575.2777777777778" y="353.0555555555556" fill="hsla(0, 0%, 80%, 1.00)" stroke="none" transform="rotate(45, 577.7777777777778, 355.5555555555556)"></rect><rect width="5" height="5" x="619.7222222222223" y="353.0555555555556" fill="hsla(0, 0%, 80%, 1.00)" stroke="none" transform="rotate(45, 622.2222222222223, 355.5555555555556)"></rect><rect width="5" height="5" x="664.1666666666667" y="353.0555555555556" fill="hsla(0, 0%, 80%, 1.00)" stroke="none" transform="rotate(45, 666.6666666666667, 355.5555555555556)"></rect><rect width="5" height="5" x="708.6111111111112" y="353.0555555555556" fill="hsla(0, 0%, 80%, 1.00)" stroke="none" transform="rotate(45, 711.1111111111112, 355.5555555555556)"></rect><rect width="5" height="5" x="753.0555555555557" y="353.0555555555556" fill="hsla(0, 0%, 80%, 1.00)" stroke="none" transform="rotate(45, 755.5555555555557, 355.5555555555556)"></rect><rect width="5" height="5" x="797.5000000000001" y="353.0555555555556" fill="hsla(0, 0%, 80%, 1.00)" stroke="none" transform="rotate(45, 800.0000000000001, 355.5555555555556)"></rect><rect width="5" height="5" x="-2.5" y="397.50000000000006" fill="hsla(0, 0%, 80%, 1.00)" stroke="none" transform="rotate(45, 0, 400.00000000000006)"></rect><rect width="5" height="5" x="41.94444444444444" y="397.50000000000006" fill="hsla(0, 0%, 80%, 1.00)" stroke="none" transform="rotate(45, 44.44444444444444, 400.00000000000006)"></rect><rect width="5" height="5" x="86.38888888888889" y="397.50000000000006" fill="hsla(0, 0%, 80%, 1.00)" stroke="none" transform="rotate(45, 88.88888888888889, 400.00000000000006)"></rect><rect width="5" height="5" x="130.83333333333331" y="397.50000000000006" fill="hsla(0, 0%, 80%, 1.00)" stroke="none" transform="rotate(45, 133.33333333333331, 400.00000000000006)"></rect><rect width="5" height="5" x="175.27777777777777" y="397.50000000000006" fill="hsla(0, 0%, 80%, 1.00)" stroke="none" transform="rotate(45, 177.77777777777777, 400.00000000000006)"></rect><rect width="5" height="5" x="219.72222222222223" y="397.50000000000006" fill="hsla(0, 0%, 80%, 1.00)" stroke="none" transform="rotate(45, 222.22222222222223, 400.00000000000006)"></rect><rect width="5" height="5" x="264.1666666666667" y="397.50000000000006" fill="hsla(0, 0%, 80%, 1.00)" stroke="none" transform="rotate(45, 266.6666666666667, 400.00000000000006)"></rect><rect width="5" height="5" x="308.61111111111114" y="397.50000000000006" fill="hsla(0, 0%, 80%, 1.00)" stroke="none" transform="rotate(45, 311.11111111111114, 400.00000000000006)"></rect><rect width="5" height="5" x="353.0555555555556" y="397.50000000000006" fill="hsla(0, 0%, 80%, 1.00)" stroke="none" transform="rotate(45, 355.5555555555556, 400.00000000000006)"></rect><rect width="5" height="5" x="397.50000000000006" y="397.50000000000006" fill="hsla(0, 0%, 80%, 1.00)" stroke="none" transform="rotate(45, 400.00000000000006, 400.00000000000006)"></rect><rect width="5" height="5" x="441.9444444444445" y="397.50000000000006" fill="hsla(0, 0%, 80%, 1.00)" stroke="none" transform="rotate(45, 444.4444444444445, 400.00000000000006)"></rect><rect width="5" height="5" x="486.38888888888897" y="397.50000000000006" fill="hsla(0, 0%, 80%, 1.00)" stroke="none" transform="rotate(45, 488.88888888888897, 400.00000000000006)"></rect><rect width="5" height="5" x="530.8333333333334" y="397.50000000000006" fill="hsla(0, 0%, 80%, 1.00)" stroke="none" transform="rotate(45, 533.3333333333334, 400.00000000000006)"></rect><rect width="5" height="5" x="575.2777777777778" y="397.50000000000006" fill="hsla(0, 0%, 80%, 1.00)" stroke="none" transform="rotate(45, 577.7777777777778, 400.00000000000006)"></rect><rect width="5" height="5" x="619.7222222222223" y="397.50000000000006" fill="hsla(0, 0%, 80%, 1.00)" stroke="none" transform="rotate(45, 622.2222222222223, 400.00000000000006)"></rect><rect width="5" height="5" x="664.1666666666667" y="397.50000000000006" fill="hsla(0, 0%, 80%, 1.00)" stroke="none" transform="rotate(45, 666.6666666666667, 400.00000000000006)"></rect><rect width="5" height="5" x="708.6111111111112" y="397.50000000000006" fill="hsla(0, 0%, 80%, 1.00)" stroke="none" transform="rotate(45, 711.1111111111112, 400.00000000000006)"></rect><rect width="5" height="5" x="753.0555555555557" y="397.50000000000006" fill="hsla(0, 0%, 80%, 1.00)" stroke="none" transform="rotate(45, 755.5555555555557, 400.00000000000006)"></rect><rect width="5" height="5" x="797.5000000000001" y="397.50000000000006" fill="hsla(0, 0%, 80%, 1.00)" stroke="none" transform="rotate(45, 800.0000000000001, 400.00000000000006)"></rect><rect width="5" height="5" x="-2.5" y="441.9444444444445" fill="hsla(0, 0%, 80%, 1.00)" stroke="none" transform="rotate(45, 0, 444.4444444444445)"></rect><rect width="5" height="5" x="41.94444444444444" y="441.9444444444445" fill="hsla(0, 0%, 80%, 1.00)" stroke="none" transform="rotate(45, 44.44444444444444, 444.4444444444445)"></rect><rect width="5" height="5" x="86.38888888888889" y="441.9444444444445" fill="hsla(0, 0%, 80%, 1.00)" stroke="none" transform="rotate(45, 88.88888888888889, 444.4444444444445)"></rect><rect width="5" height="5" x="130.83333333333331" y="441.9444444444445" fill="hsla(0, 0%, 80%, 1.00)" stroke="none" transform="rotate(45, 133.33333333333331, 444.4444444444445)"></rect><rect width="5" height="5" x="175.27777777777777" y="441.9444444444445" fill="hsla(0, 0%, 80%, 1.00)" stroke="none" transform="rotate(45, 177.77777777777777, 444.4444444444445)"></rect><rect width="5" height="5" x="219.72222222222223" y="441.9444444444445" fill="hsla(0, 0%, 80%, 1.00)" stroke="none" transform="rotate(45, 222.22222222222223, 444.4444444444445)"></rect><rect width="5" height="5" x="264.1666666666667" y="441.9444444444445" fill="hsla(0, 0%, 80%, 1.00)" stroke="none" transform="rotate(45, 266.6666666666667, 444.4444444444445)"></rect><rect width="5" height="5" x="308.61111111111114" y="441.9444444444445" fill="hsla(0, 0%, 80%, 1.00)" stroke="none" transform="rotate(45, 311.11111111111114, 444.4444444444445)"></rect><rect width="5" height="5" x="353.0555555555556" y="441.9444444444445" fill="hsla(0, 0%, 80%, 1.00)" stroke="none" transform="rotate(45, 355.5555555555556, 444.4444444444445)"></rect><rect width="5" height="5" x="397.50000000000006" y="441.9444444444445" fill="hsla(0, 0%, 80%, 1.00)" stroke="none" transform="rotate(45, 400.00000000000006, 444.4444444444445)"></rect><rect width="5" height="5" x="441.9444444444445" y="441.9444444444445" fill="hsla(0, 0%, 80%, 1.00)" stroke="none" transform="rotate(45, 444.4444444444445, 444.4444444444445)"></rect><rect width="5" height="5" x="486.38888888888897" y="441.9444444444445" fill="hsla(0, 0%, 80%, 1.00)" stroke="none" transform="rotate(45, 488.88888888888897, 444.4444444444445)"></rect><rect width="5" height="5" x="530.8333333333334" y="441.9444444444445" fill="hsla(0, 0%, 80%, 1.00)" stroke="none" transform="rotate(45, 533.3333333333334, 444.4444444444445)"></rect><rect width="5" height="5" x="575.2777777777778" y="441.9444444444445" fill="hsla(0, 0%, 80%, 1.00)" stroke="none" transform="rotate(45, 577.7777777777778, 444.4444444444445)"></rect><rect width="5" height="5" x="619.7222222222223" y="441.9444444444445" fill="hsla(0, 0%, 80%, 1.00)" stroke="none" transform="rotate(45, 622.2222222222223, 444.4444444444445)"></rect><rect width="5" height="5" x="664.1666666666667" y="441.9444444444445" fill="hsla(0, 0%, 80%, 1.00)" stroke="none" transform="rotate(45, 666.6666666666667, 444.4444444444445)"></rect><rect width="5" height="5" x="708.6111111111112" y="441.9444444444445" fill="hsla(0, 0%, 80%, 1.00)" stroke="none" transform="rotate(45, 711.1111111111112, 444.4444444444445)"></rect><rect width="5" height="5" x="753.0555555555557" y="441.9444444444445" fill="hsla(0, 0%, 80%, 1.00)" stroke="none" transform="rotate(45, 755.5555555555557, 444.4444444444445)"></rect><rect width="5" height="5" x="797.5000000000001" y="441.9444444444445" fill="hsla(0, 0%, 80%, 1.00)" stroke="none" transform="rotate(45, 800.0000000000001, 444.4444444444445)"></rect><rect width="5" height="5" x="-2.5" y="486.38888888888897" fill="hsla(0, 0%, 80%, 1.00)" stroke="none" transform="rotate(45, 0, 488.88888888888897)"></rect><rect width="5" height="5" x="41.94444444444444" y="486.38888888888897" fill="hsla(0, 0%, 80%, 1.00)" stroke="none" transform="rotate(45, 44.44444444444444, 488.88888888888897)"></rect><rect width="5" height="5" x="86.38888888888889" y="486.38888888888897" fill="hsla(0, 0%, 80%, 1.00)" stroke="none" transform="rotate(45, 88.88888888888889, 488.88888888888897)"></rect><rect width="5" height="5" x="130.83333333333331" y="486.38888888888897" fill="hsla(0, 0%, 80%, 1.00)" stroke="none" transform="rotate(45, 133.33333333333331, 488.88888888888897)"></rect><rect width="5" height="5" x="175.27777777777777" y="486.38888888888897" fill="hsla(0, 0%, 80%, 1.00)" stroke="none" transform="rotate(45, 177.77777777777777, 488.88888888888897)"></rect><rect width="5" height="5" x="219.72222222222223" y="486.38888888888897" fill="hsla(0, 0%, 80%, 1.00)" stroke="none" transform="rotate(45, 222.22222222222223, 488.88888888888897)"></rect><rect width="5" height="5" x="264.1666666666667" y="486.38888888888897" fill="hsla(0, 0%, 80%, 1.00)" stroke="none" transform="rotate(45, 266.6666666666667, 488.88888888888897)"></rect><rect width="5" height="5" x="308.61111111111114" y="486.38888888888897" fill="hsla(0, 0%, 80%, 1.00)" stroke="none" transform="rotate(45, 311.11111111111114, 488.88888888888897)"></rect><rect width="5" height="5" x="353.0555555555556" y="486.38888888888897" fill="hsla(0, 0%, 80%, 1.00)" stroke="none" transform="rotate(45, 355.5555555555556, 488.88888888888897)"></rect><rect width="5" height="5" x="397.50000000000006" y="486.38888888888897" fill="hsla(0, 0%, 80%, 1.00)" stroke="none" transform="rotate(45, 400.00000000000006, 488.88888888888897)"></rect><rect width="5" height="5" x="441.9444444444445" y="486.38888888888897" fill="hsla(0, 0%, 80%, 1.00)" stroke="none" transform="rotate(45, 444.4444444444445, 488.88888888888897)"></rect><rect width="5" height="5" x="486.38888888888897" y="486.38888888888897" fill="hsla(0, 0%, 80%, 1.00)" stroke="none" transform="rotate(45, 488.88888888888897, 488.88888888888897)"></rect><rect width="5" height="5" x="530.8333333333334" y="486.38888888888897" fill="hsla(0, 0%, 80%, 1.00)" stroke="none" transform="rotate(45, 533.3333333333334, 488.88888888888897)"></rect><rect width="5" height="5" x="575.2777777777778" y="486.38888888888897" fill="hsla(0, 0%, 80%, 1.00)" stroke="none" transform="rotate(45, 577.7777777777778, 488.88888888888897)"></rect><rect width="5" height="5" x="619.7222222222223" y="486.38888888888897" fill="hsla(0, 0%, 80%, 1.00)" stroke="none" transform="rotate(45, 622.2222222222223, 488.88888888888897)"></rect><rect width="5" height="5" x="664.1666666666667" y="486.38888888888897" fill="hsla(0, 0%, 80%, 1.00)" stroke="none" transform="rotate(45, 666.6666666666667, 488.88888888888897)"></rect><rect width="5" height="5" x="708.6111111111112" y="486.38888888888897" fill="hsla(0, 0%, 80%, 1.00)" stroke="none" transform="rotate(45, 711.1111111111112, 488.88888888888897)"></rect><rect width="5" height="5" x="753.0555555555557" y="486.38888888888897" fill="hsla(0, 0%, 80%, 1.00)" stroke="none" transform="rotate(45, 755.5555555555557, 488.88888888888897)"></rect><rect width="5" height="5" x="797.5000000000001" y="486.38888888888897" fill="hsla(0, 0%, 80%, 1.00)" stroke="none" transform="rotate(45, 800.0000000000001, 488.88888888888897)"></rect><rect width="5" height="5" x="-2.5" y="530.8333333333334" fill="hsla(0, 0%, 80%, 1.00)" stroke="none" transform="rotate(45, 0, 533.3333333333334)"></rect><rect width="5" height="5" x="41.94444444444444" y="530.8333333333334" fill="hsla(0, 0%, 80%, 1.00)" stroke="none" transform="rotate(45, 44.44444444444444, 533.3333333333334)"></rect><rect width="5" height="5" x="86.38888888888889" y="530.8333333333334" fill="hsla(0, 0%, 80%, 1.00)" stroke="none" transform="rotate(45, 88.88888888888889, 533.3333333333334)"></rect><rect width="5" height="5" x="130.83333333333331" y="530.8333333333334" fill="hsla(0, 0%, 80%, 1.00)" stroke="none" transform="rotate(45, 133.33333333333331, 533.3333333333334)"></rect><rect width="5" height="5" x="175.27777777777777" y="530.8333333333334" fill="hsla(0, 0%, 80%, 1.00)" stroke="none" transform="rotate(45, 177.77777777777777, 533.3333333333334)"></rect><rect width="5" height="5" x="219.72222222222223" y="530.8333333333334" fill="hsla(0, 0%, 80%, 1.00)" stroke="none" transform="rotate(45, 222.22222222222223, 533.3333333333334)"></rect><rect width="5" height="5" x="264.1666666666667" y="530.8333333333334" fill="hsla(0, 0%, 80%, 1.00)" stroke="none" transform="rotate(45, 266.6666666666667, 533.3333333333334)"></rect><rect width="5" height="5" x="308.61111111111114" y="530.8333333333334" fill="hsla(0, 0%, 80%, 1.00)" stroke="none" transform="rotate(45, 311.11111111111114, 533.3333333333334)"></rect><rect width="5" height="5" x="353.0555555555556" y="530.8333333333334" fill="hsla(0, 0%, 80%, 1.00)" stroke="none" transform="rotate(45, 355.5555555555556, 533.3333333333334)"></rect><rect width="5" height="5" x="397.50000000000006" y="530.8333333333334" fill="hsla(0, 0%, 80%, 1.00)" stroke="none" transform="rotate(45, 400.00000000000006, 533.3333333333334)"></rect><rect width="5" height="5" x="441.9444444444445" y="530.8333333333334" fill="hsla(0, 0%, 80%, 1.00)" stroke="none" transform="rotate(45, 444.4444444444445, 533.3333333333334)"></rect><rect width="5" height="5" x="486.38888888888897" y="530.8333333333334" fill="hsla(0, 0%, 80%, 1.00)" stroke="none" transform="rotate(45, 488.88888888888897, 533.3333333333334)"></rect><rect width="5" height="5" x="530.8333333333334" y="530.8333333333334" fill="hsla(0, 0%, 80%, 1.00)" stroke="none" transform="rotate(45, 533.3333333333334, 533.3333333333334)"></rect><rect width="5" height="5" x="575.2777777777778" y="530.8333333333334" fill="hsla(0, 0%, 80%, 1.00)" stroke="none" transform="rotate(45, 577.7777777777778, 533.3333333333334)"></rect><rect width="5" height="5" x="619.7222222222223" y="530.8333333333334" fill="hsla(0, 0%, 80%, 1.00)" stroke="none" transform="rotate(45, 622.2222222222223, 533.3333333333334)"></rect><rect width="5" height="5" x="664.1666666666667" y="530.8333333333334" fill="hsla(0, 0%, 80%, 1.00)" stroke="none" transform="rotate(45, 666.6666666666667, 533.3333333333334)"></rect><rect width="5" height="5" x="708.6111111111112" y="530.8333333333334" fill="hsla(0, 0%, 80%, 1.00)" stroke="none" transform="rotate(45, 711.1111111111112, 533.3333333333334)"></rect><rect width="5" height="5" x="753.0555555555557" y="530.8333333333334" fill="hsla(0, 0%, 80%, 1.00)" stroke="none" transform="rotate(45, 755.5555555555557, 533.3333333333334)"></rect><rect width="5" height="5" x="797.5000000000001" y="530.8333333333334" fill="hsla(0, 0%, 80%, 1.00)" stroke="none" transform="rotate(45, 800.0000000000001, 533.3333333333334)"></rect><rect width="5" height="5" x="-2.5" y="575.2777777777778" fill="hsla(0, 0%, 80%, 1.00)" stroke="none" transform="rotate(45, 0, 577.7777777777778)"></rect><rect width="5" height="5" x="41.94444444444444" y="575.2777777777778" fill="hsla(0, 0%, 80%, 1.00)" stroke="none" transform="rotate(45, 44.44444444444444, 577.7777777777778)"></rect><rect width="5" height="5" x="86.38888888888889" y="575.2777777777778" fill="hsla(0, 0%, 80%, 1.00)" stroke="none" transform="rotate(45, 88.88888888888889, 577.7777777777778)"></rect><rect width="5" height="5" x="130.83333333333331" y="575.2777777777778" fill="hsla(0, 0%, 80%, 1.00)" stroke="none" transform="rotate(45, 133.33333333333331, 577.7777777777778)"></rect><rect width="5" height="5" x="175.27777777777777" y="575.2777777777778" fill="hsla(0, 0%, 80%, 1.00)" stroke="none" transform="rotate(45, 177.77777777777777, 577.7777777777778)"></rect><rect width="5" height="5" x="219.72222222222223" y="575.2777777777778" fill="hsla(0, 0%, 80%, 1.00)" stroke="none" transform="rotate(45, 222.22222222222223, 577.7777777777778)"></rect><rect width="5" height="5" x="264.1666666666667" y="575.2777777777778" fill="hsla(0, 0%, 80%, 1.00)" stroke="none" transform="rotate(45, 266.6666666666667, 577.7777777777778)"></rect><rect width="5" height="5" x="308.61111111111114" y="575.2777777777778" fill="hsla(0, 0%, 80%, 1.00)" stroke="none" transform="rotate(45, 311.11111111111114, 577.7777777777778)"></rect><rect width="5" height="5" x="353.0555555555556" y="575.2777777777778" fill="hsla(0, 0%, 80%, 1.00)" stroke="none" transform="rotate(45, 355.5555555555556, 577.7777777777778)"></rect><rect width="5" height="5" x="397.50000000000006" y="575.2777777777778" fill="hsla(0, 0%, 80%, 1.00)" stroke="none" transform="rotate(45, 400.00000000000006, 577.7777777777778)"></rect><rect width="5" height="5" x="441.9444444444445" y="575.2777777777778" fill="hsla(0, 0%, 80%, 1.00)" stroke="none" transform="rotate(45, 444.4444444444445, 577.7777777777778)"></rect><rect width="5" height="5" x="486.38888888888897" y="575.2777777777778" fill="hsla(0, 0%, 80%, 1.00)" stroke="none" transform="rotate(45, 488.88888888888897, 577.7777777777778)"></rect><rect width="5" height="5" x="530.8333333333334" y="575.2777777777778" fill="hsla(0, 0%, 80%, 1.00)" stroke="none" transform="rotate(45, 533.3333333333334, 577.7777777777778)"></rect><rect width="5" height="5" x="575.2777777777778" y="575.2777777777778" fill="hsla(0, 0%, 80%, 1.00)" stroke="none" transform="rotate(45, 577.7777777777778, 577.7777777777778)"></rect><rect width="5" height="5" x="619.7222222222223" y="575.2777777777778" fill="hsla(0, 0%, 80%, 1.00)" stroke="none" transform="rotate(45, 622.2222222222223, 577.7777777777778)"></rect><rect width="5" height="5" x="664.1666666666667" y="575.2777777777778" fill="hsla(0, 0%, 80%, 1.00)" stroke="none" transform="rotate(45, 666.6666666666667, 577.7777777777778)"></rect><rect width="5" height="5" x="708.6111111111112" y="575.2777777777778" fill="hsla(0, 0%, 80%, 1.00)" stroke="none" transform="rotate(45, 711.1111111111112, 577.7777777777778)"></rect><rect width="5" height="5" x="753.0555555555557" y="575.2777777777778" fill="hsla(0, 0%, 80%, 1.00)" stroke="none" transform="rotate(45, 755.5555555555557, 577.7777777777778)"></rect><rect width="5" height="5" x="797.5000000000001" y="575.2777777777778" fill="hsla(0, 0%, 80%, 1.00)" stroke="none" transform="rotate(45, 800.0000000000001, 577.7777777777778)"></rect><rect width="5" height="5" x="-2.5" y="619.7222222222223" fill="hsla(0, 0%, 80%, 1.00)" stroke="none" transform="rotate(45, 0, 622.2222222222223)"></rect><rect width="5" height="5" x="41.94444444444444" y="619.7222222222223" fill="hsla(0, 0%, 80%, 1.00)" stroke="none" transform="rotate(45, 44.44444444444444, 622.2222222222223)"></rect><rect width="5" height="5" x="86.38888888888889" y="619.7222222222223" fill="hsla(0, 0%, 80%, 1.00)" stroke="none" transform="rotate(45, 88.88888888888889, 622.2222222222223)"></rect><rect width="5" height="5" x="130.83333333333331" y="619.7222222222223" fill="hsla(0, 0%, 80%, 1.00)" stroke="none" transform="rotate(45, 133.33333333333331, 622.2222222222223)"></rect><rect width="5" height="5" x="175.27777777777777" y="619.7222222222223" fill="hsla(0, 0%, 80%, 1.00)" stroke="none" transform="rotate(45, 177.77777777777777, 622.2222222222223)"></rect><rect width="5" height="5" x="219.72222222222223" y="619.7222222222223" fill="hsla(0, 0%, 80%, 1.00)" stroke="none" transform="rotate(45, 222.22222222222223, 622.2222222222223)"></rect><rect width="5" height="5" x="264.1666666666667" y="619.7222222222223" fill="hsla(0, 0%, 80%, 1.00)" stroke="none" transform="rotate(45, 266.6666666666667, 622.2222222222223)"></rect><rect width="5" height="5" x="308.61111111111114" y="619.7222222222223" fill="hsla(0, 0%, 80%, 1.00)" stroke="none" transform="rotate(45, 311.11111111111114, 622.2222222222223)"></rect><rect width="5" height="5" x="353.0555555555556" y="619.7222222222223" fill="hsla(0, 0%, 80%, 1.00)" stroke="none" transform="rotate(45, 355.5555555555556, 622.2222222222223)"></rect><rect width="5" height="5" x="397.50000000000006" y="619.7222222222223" fill="hsla(0, 0%, 80%, 1.00)" stroke="none" transform="rotate(45, 400.00000000000006, 622.2222222222223)"></rect><rect width="5" height="5" x="441.9444444444445" y="619.7222222222223" fill="hsla(0, 0%, 80%, 1.00)" stroke="none" transform="rotate(45, 444.4444444444445, 622.2222222222223)"></rect><rect width="5" height="5" x="486.38888888888897" y="619.7222222222223" fill="hsla(0, 0%, 80%, 1.00)" stroke="none" transform="rotate(45, 488.88888888888897, 622.2222222222223)"></rect><rect width="5" height="5" x="530.8333333333334" y="619.7222222222223" fill="hsla(0, 0%, 80%, 1.00)" stroke="none" transform="rotate(45, 533.3333333333334, 622.2222222222223)"></rect><rect width="5" height="5" x="575.2777777777778" y="619.7222222222223" fill="hsla(0, 0%, 80%, 1.00)" stroke="none" transform="rotate(45, 577.7777777777778, 622.2222222222223)"></rect><rect width="5" height="5" x="619.7222222222223" y="619.7222222222223" fill="hsla(0, 0%, 80%, 1.00)" stroke="none" transform="rotate(45, 622.2222222222223, 622.2222222222223)"></rect><rect width="5" height="5" x="664.1666666666667" y="619.7222222222223" fill="hsla(0, 0%, 80%, 1.00)" stroke="none" transform="rotate(45, 666.6666666666667, 622.2222222222223)"></rect><rect width="5" height="5" x="708.6111111111112" y="619.7222222222223" fill="hsla(0, 0%, 80%, 1.00)" stroke="none" transform="rotate(45, 711.1111111111112, 622.2222222222223)"></rect><rect width="5" height="5" x="753.0555555555557" y="619.7222222222223" fill="hsla(0, 0%, 80%, 1.00)" stroke="none" transform="rotate(45, 755.5555555555557, 622.2222222222223)"></rect><rect width="5" height="5" x="797.5000000000001" y="619.7222222222223" fill="hsla(0, 0%, 80%, 1.00)" stroke="none" transform="rotate(45, 800.0000000000001, 622.2222222222223)"></rect><rect width="5" height="5" x="-2.5" y="664.1666666666667" fill="hsla(0, 0%, 80%, 1.00)" stroke="none" transform="rotate(45, 0, 666.6666666666667)"></rect><rect width="5" height="5" x="41.94444444444444" y="664.1666666666667" fill="hsla(0, 0%, 80%, 1.00)" stroke="none" transform="rotate(45, 44.44444444444444, 666.6666666666667)"></rect><rect width="5" height="5" x="86.38888888888889" y="664.1666666666667" fill="hsla(0, 0%, 80%, 1.00)" stroke="none" transform="rotate(45, 88.88888888888889, 666.6666666666667)"></rect><rect width="5" height="5" x="130.83333333333331" y="664.1666666666667" fill="hsla(0, 0%, 80%, 1.00)" stroke="none" transform="rotate(45, 133.33333333333331, 666.6666666666667)"></rect><rect width="5" height="5" x="175.27777777777777" y="664.1666666666667" fill="hsla(0, 0%, 80%, 1.00)" stroke="none" transform="rotate(45, 177.77777777777777, 666.6666666666667)"></rect><rect width="5" height="5" x="219.72222222222223" y="664.1666666666667" fill="hsla(0, 0%, 80%, 1.00)" stroke="none" transform="rotate(45, 222.22222222222223, 666.6666666666667)"></rect><rect width="5" height="5" x="264.1666666666667" y="664.1666666666667" fill="hsla(0, 0%, 80%, 1.00)" stroke="none" transform="rotate(45, 266.6666666666667, 666.6666666666667)"></rect><rect width="5" height="5" x="308.61111111111114" y="664.1666666666667" fill="hsla(0, 0%, 80%, 1.00)" stroke="none" transform="rotate(45, 311.11111111111114, 666.6666666666667)"></rect><rect width="5" height="5" x="353.0555555555556" y="664.1666666666667" fill="hsla(0, 0%, 80%, 1.00)" stroke="none" transform="rotate(45, 355.5555555555556, 666.6666666666667)"></rect><rect width="5" height="5" x="397.50000000000006" y="664.1666666666667" fill="hsla(0, 0%, 80%, 1.00)" stroke="none" transform="rotate(45, 400.00000000000006, 666.6666666666667)"></rect><rect width="5" height="5" x="441.9444444444445" y="664.1666666666667" fill="hsla(0, 0%, 80%, 1.00)" stroke="none" transform="rotate(45, 444.4444444444445, 666.6666666666667)"></rect><rect width="5" height="5" x="486.38888888888897" y="664.1666666666667" fill="hsla(0, 0%, 80%, 1.00)" stroke="none" transform="rotate(45, 488.88888888888897, 666.6666666666667)"></rect><rect width="5" height="5" x="530.8333333333334" y="664.1666666666667" fill="hsla(0, 0%, 80%, 1.00)" stroke="none" transform="rotate(45, 533.3333333333334, 666.6666666666667)"></rect><rect width="5" height="5" x="575.2777777777778" y="664.1666666666667" fill="hsla(0, 0%, 80%, 1.00)" stroke="none" transform="rotate(45, 577.7777777777778, 666.6666666666667)"></rect><rect width="5" height="5" x="619.7222222222223" y="664.1666666666667" fill="hsla(0, 0%, 80%, 1.00)" stroke="none" transform="rotate(45, 622.2222222222223, 666.6666666666667)"></rect><rect width="5" height="5" x="664.1666666666667" y="664.1666666666667" fill="hsla(0, 0%, 80%, 1.00)" stroke="none" transform="rotate(45, 666.6666666666667, 666.6666666666667)"></rect><rect width="5" height="5" x="708.6111111111112" y="664.1666666666667" fill="hsla(0, 0%, 80%, 1.00)" stroke="none" transform="rotate(45, 711.1111111111112, 666.6666666666667)"></rect><rect width="5" height="5" x="753.0555555555557" y="664.1666666666667" fill="hsla(0, 0%, 80%, 1.00)" stroke="none" transform="rotate(45, 755.5555555555557, 666.6666666666667)"></rect><rect width="5" height="5" x="797.5000000000001" y="664.1666666666667" fill="hsla(0, 0%, 80%, 1.00)" stroke="none" transform="rotate(45, 800.0000000000001, 666.6666666666667)"></rect><rect width="5" height="5" x="-2.5" y="708.6111111111112" fill="hsla(0, 0%, 80%, 1.00)" stroke="none" transform="rotate(45, 0, 711.1111111111112)"></rect><rect width="5" height="5" x="41.94444444444444" y="708.6111111111112" fill="hsla(0, 0%, 80%, 1.00)" stroke="none" transform="rotate(45, 44.44444444444444, 711.1111111111112)"></rect><rect width="5" height="5" x="86.38888888888889" y="708.6111111111112" fill="hsla(0, 0%, 80%, 1.00)" stroke="none" transform="rotate(45, 88.88888888888889, 711.1111111111112)"></rect><rect width="5" height="5" x="130.83333333333331" y="708.6111111111112" fill="hsla(0, 0%, 80%, 1.00)" stroke="none" transform="rotate(45, 133.33333333333331, 711.1111111111112)"></rect><rect width="5" height="5" x="175.27777777777777" y="708.6111111111112" fill="hsla(0, 0%, 80%, 1.00)" stroke="none" transform="rotate(45, 177.77777777777777, 711.1111111111112)"></rect><rect width="5" height="5" x="219.72222222222223" y="708.6111111111112" fill="hsla(0, 0%, 80%, 1.00)" stroke="none" transform="rotate(45, 222.22222222222223, 711.1111111111112)"></rect><rect width="5" height="5" x="264.1666666666667" y="708.6111111111112" fill="hsla(0, 0%, 80%, 1.00)" stroke="none" transform="rotate(45, 266.6666666666667, 711.1111111111112)"></rect><rect width="5" height="5" x="308.61111111111114" y="708.6111111111112" fill="hsla(0, 0%, 80%, 1.00)" stroke="none" transform="rotate(45, 311.11111111111114, 711.1111111111112)"></rect><rect width="5" height="5" x="353.0555555555556" y="708.6111111111112" fill="hsla(0, 0%, 80%, 1.00)" stroke="none" transform="rotate(45, 355.5555555555556, 711.1111111111112)"></rect><rect width="5" height="5" x="397.50000000000006" y="708.6111111111112" fill="hsla(0, 0%, 80%, 1.00)" stroke="none" transform="rotate(45, 400.00000000000006, 711.1111111111112)"></rect><rect width="5" height="5" x="441.9444444444445" y="708.6111111111112" fill="hsla(0, 0%, 80%, 1.00)" stroke="none" transform="rotate(45, 444.4444444444445, 711.1111111111112)"></rect><rect width="5" height="5" x="486.38888888888897" y="708.6111111111112" fill="hsla(0, 0%, 80%, 1.00)" stroke="none" transform="rotate(45, 488.88888888888897, 711.1111111111112)"></rect><rect width="5" height="5" x="530.8333333333334" y="708.6111111111112" fill="hsla(0, 0%, 80%, 1.00)" stroke="none" transform="rotate(45, 533.3333333333334, 711.1111111111112)"></rect><rect width="5" height="5" x="575.2777777777778" y="708.6111111111112" fill="hsla(0, 0%, 80%, 1.00)" stroke="none" transform="rotate(45, 577.7777777777778, 711.1111111111112)"></rect><rect width="5" height="5" x="619.7222222222223" y="708.6111111111112" fill="hsla(0, 0%, 80%, 1.00)" stroke="none" transform="rotate(45, 622.2222222222223, 711.1111111111112)"></rect><rect width="5" height="5" x="664.1666666666667" y="708.6111111111112" fill="hsla(0, 0%, 80%, 1.00)" stroke="none" transform="rotate(45, 666.6666666666667, 711.1111111111112)"></rect><rect width="5" height="5" x="708.6111111111112" y="708.6111111111112" fill="hsla(0, 0%, 80%, 1.00)" stroke="none" transform="rotate(45, 711.1111111111112, 711.1111111111112)"></rect><rect width="5" height="5" x="753.0555555555557" y="708.6111111111112" fill="hsla(0, 0%, 80%, 1.00)" stroke="none" transform="rotate(45, 755.5555555555557, 711.1111111111112)"></rect><rect width="5" height="5" x="797.5000000000001" y="708.6111111111112" fill="hsla(0, 0%, 80%, 1.00)" stroke="none" transform="rotate(45, 800.0000000000001, 711.1111111111112)"></rect><rect width="5" height="5" x="-2.5" y="753.0555555555557" fill="hsla(0, 0%, 80%, 1.00)" stroke="none" transform="rotate(45, 0, 755.5555555555557)"></rect><rect width="5" height="5" x="41.94444444444444" y="753.0555555555557" fill="hsla(0, 0%, 80%, 1.00)" stroke="none" transform="rotate(45, 44.44444444444444, 755.5555555555557)"></rect><rect width="5" height="5" x="86.38888888888889" y="753.0555555555557" fill="hsla(0, 0%, 80%, 1.00)" stroke="none" transform="rotate(45, 88.88888888888889, 755.5555555555557)"></rect><rect width="5" height="5" x="130.83333333333331" y="753.0555555555557" fill="hsla(0, 0%, 80%, 1.00)" stroke="none" transform="rotate(45, 133.33333333333331, 755.5555555555557)"></rect><rect width="5" height="5" x="175.27777777777777" y="753.0555555555557" fill="hsla(0, 0%, 80%, 1.00)" stroke="none" transform="rotate(45, 177.77777777777777, 755.5555555555557)"></rect><rect width="5" height="5" x="219.72222222222223" y="753.0555555555557" fill="hsla(0, 0%, 80%, 1.00)" stroke="none" transform="rotate(45, 222.22222222222223, 755.5555555555557)"></rect><rect width="5" height="5" x="264.1666666666667" y="753.0555555555557" fill="hsla(0, 0%, 80%, 1.00)" stroke="none" transform="rotate(45, 266.6666666666667, 755.5555555555557)"></rect><rect width="5" height="5" x="308.61111111111114" y="753.0555555555557" fill="hsla(0, 0%, 80%, 1.00)" stroke="none" transform="rotate(45, 311.11111111111114, 755.5555555555557)"></rect><rect width="5" height="5" x="353.0555555555556" y="753.0555555555557" fill="hsla(0, 0%, 80%, 1.00)" stroke="none" transform="rotate(45, 355.5555555555556, 755.5555555555557)"></rect><rect width="5" height="5" x="397.50000000000006" y="753.0555555555557" fill="hsla(0, 0%, 80%, 1.00)" stroke="none" transform="rotate(45, 400.00000000000006, 755.5555555555557)"></rect><rect width="5" height="5" x="441.9444444444445" y="753.0555555555557" fill="hsla(0, 0%, 80%, 1.00)" stroke="none" transform="rotate(45, 444.4444444444445, 755.5555555555557)"></rect><rect width="5" height="5" x="486.38888888888897" y="753.0555555555557" fill="hsla(0, 0%, 80%, 1.00)" stroke="none" transform="rotate(45, 488.88888888888897, 755.5555555555557)"></rect><rect width="5" height="5" x="530.8333333333334" y="753.0555555555557" fill="hsla(0, 0%, 80%, 1.00)" stroke="none" transform="rotate(45, 533.3333333333334, 755.5555555555557)"></rect><rect width="5" height="5" x="575.2777777777778" y="753.0555555555557" fill="hsla(0, 0%, 80%, 1.00)" stroke="none" transform="rotate(45, 577.7777777777778, 755.5555555555557)"></rect><rect width="5" height="5" x="619.7222222222223" y="753.0555555555557" fill="hsla(0, 0%, 80%, 1.00)" stroke="none" transform="rotate(45, 622.2222222222223, 755.5555555555557)"></rect><rect width="5" height="5" x="664.1666666666667" y="753.0555555555557" fill="hsla(0, 0%, 80%, 1.00)" stroke="none" transform="rotate(45, 666.6666666666667, 755.5555555555557)"></rect><rect width="5" height="5" x="708.6111111111112" y="753.0555555555557" fill="hsla(0, 0%, 80%, 1.00)" stroke="none" transform="rotate(45, 711.1111111111112, 755.5555555555557)"></rect><rect width="5" height="5" x="753.0555555555557" y="753.0555555555557" fill="hsla(0, 0%, 80%, 1.00)" stroke="none" transform="rotate(45, 755.5555555555557, 755.5555555555557)"></rect><rect width="5" height="5" x="797.5000000000001" y="753.0555555555557" fill="hsla(0, 0%, 80%, 1.00)" stroke="none" transform="rotate(45, 800.0000000000001, 755.5555555555557)"></rect><rect width="5" height="5" x="-2.5" y="797.5000000000001" fill="hsla(0, 0%, 80%, 1.00)" stroke="none" transform="rotate(45, 0, 800.0000000000001)"></rect><rect width="5" height="5" x="41.94444444444444" y="797.5000000000001" fill="hsla(0, 0%, 80%, 1.00)" stroke="none" transform="rotate(45, 44.44444444444444, 800.0000000000001)"></rect><rect width="5" height="5" x="86.38888888888889" y="797.5000000000001" fill="hsla(0, 0%, 80%, 1.00)" stroke="none" transform="rotate(45, 88.88888888888889, 800.0000000000001)"></rect><rect width="5" height="5" x="130.83333333333331" y="797.5000000000001" fill="hsla(0, 0%, 80%, 1.00)" stroke="none" transform="rotate(45, 133.33333333333331, 800.0000000000001)"></rect><rect width="5" height="5" x="175.27777777777777" y="797.5000000000001" fill="hsla(0, 0%, 80%, 1.00)" stroke="none" transform="rotate(45, 177.77777777777777, 800.0000000000001)"></rect><rect width="5" height="5" x="219.72222222222223" y="797.5000000000001" fill="hsla(0, 0%, 80%, 1.00)" stroke="none" transform="rotate(45, 222.22222222222223, 800.0000000000001)"></rect><rect width="5" height="5" x="264.1666666666667" y="797.5000000000001" fill="hsla(0, 0%, 80%, 1.00)" stroke="none" transform="rotate(45, 266.6666666666667, 800.0000000000001)"></rect><rect width="5" height="5" x="308.61111111111114" y="797.5000000000001" fill="hsla(0, 0%, 80%, 1.00)" stroke="none" transform="rotate(45, 311.11111111111114, 800.0000000000001)"></rect><rect width="5" height="5" x="353.0555555555556" y="797.5000000000001" fill="hsla(0, 0%, 80%, 1.00)" stroke="none" transform="rotate(45, 355.5555555555556, 800.0000000000001)"></rect><rect width="5" height="5" x="397.50000000000006" y="797.5000000000001" fill="hsla(0, 0%, 80%, 1.00)" stroke="none" transform="rotate(45, 400.00000000000006, 800.0000000000001)"></rect><rect width="5" height="5" x="441.9444444444445" y="797.5000000000001" fill="hsla(0, 0%, 80%, 1.00)" stroke="none" transform="rotate(45, 444.4444444444445, 800.0000000000001)"></rect><rect width="5" height="5" x="486.38888888888897" y="797.5000000000001" fill="hsla(0, 0%, 80%, 1.00)" stroke="none" transform="rotate(45, 488.88888888888897, 800.0000000000001)"></rect><rect width="5" height="5" x="530.8333333333334" y="797.5000000000001" fill="hsla(0, 0%, 80%, 1.00)" stroke="none" transform="rotate(45, 533.3333333333334, 800.0000000000001)"></rect><rect width="5" height="5" x="575.2777777777778" y="797.5000000000001" fill="hsla(0, 0%, 80%, 1.00)" stroke="none" transform="rotate(45, 577.7777777777778, 800.0000000000001)"></rect><rect width="5" height="5" x="619.7222222222223" y="797.5000000000001" fill="hsla(0, 0%, 80%, 1.00)" stroke="none" transform="rotate(45, 622.2222222222223, 800.0000000000001)"></rect><rect width="5" height="5" x="664.1666666666667" y="797.5000000000001" fill="hsla(0, 0%, 80%, 1.00)" stroke="none" transform="rotate(45, 666.6666666666667, 800.0000000000001)"></rect><rect width="5" height="5" x="708.6111111111112" y="797.5000000000001" fill="hsla(0, 0%, 80%, 1.00)" stroke="none" transform="rotate(45, 711.1111111111112, 800.0000000000001)"></rect><rect width="5" height="5" x="753.0555555555557" y="797.5000000000001" fill="hsla(0, 0%, 80%, 1.00)" stroke="none" transform="rotate(45, 755.5555555555557, 800.0000000000001)"></rect><rect width="5" height="5" x="797.5000000000001" y="797.5000000000001" fill="hsla(0, 0%, 80%, 1.00)" stroke="none" transform="rotate(45, 800.0000000000001, 800.0000000000001)"></rect></g></svg>