<svg xmlns="http://www.w3.org/2000/svg" version="1.1" xmlns:xlink="http://www.w3.org/1999/xlink" xmlns:svgjs="http://svgjs.dev/svgjs" viewBox="0 0 800 800" opacity="0.14" width="800" height="800"><g stroke-width="0.5" stroke="hsla(261, 10%, 36%, 1.00)" fill="none"><rect width="61.53846153846154" height="57.142857142857146" x="0" y="0"></rect><rect width="61.53846153846154" height="57.142857142857146" x="61.53846153846154" y="0"></rect><rect width="61.53846153846154" height="57.142857142857146" x="123.07692307692308" y="0"></rect><rect width="61.53846153846154" height="57.142857142857146" x="184.6153846153846" y="0"></rect><rect width="61.53846153846154" height="57.142857142857146" x="246.15384615384616" y="0"></rect><rect width="61.53846153846154" height="57.142857142857146" x="307.6923076923077" y="0"></rect><rect width="61.53846153846154" height="57.142857142857146" x="369.2307692307692" y="0"></rect><rect width="61.53846153846154" height="57.142857142857146" x="430.7692307692308" y="0"></rect><rect width="61.53846153846154" height="57.142857142857146" x="492.3076923076923" y="0"></rect><rect width="61.53846153846154" height="57.142857142857146" x="553.8461538461538" y="0"></rect><rect width="61.53846153846154" height="57.142857142857146" x="615.3846153846154" y="0"></rect><rect width="61.53846153846154" height="57.142857142857146" x="676.9230769230769" y="0"></rect><rect width="61.53846153846154" height="57.142857142857146" x="738.4615384615385" y="0"></rect><rect width="61.53846153846154" height="57.142857142857146" x="800" y="0"></rect><rect width="61.53846153846154" height="57.142857142857146" x="0" y="57.142857142857146"></rect><rect width="61.53846153846154" height="57.142857142857146" x="61.53846153846154" y="57.142857142857146"></rect><rect width="61.53846153846154" height="57.142857142857146" x="123.07692307692308" y="57.142857142857146"></rect><rect width="61.53846153846154" height="57.142857142857146" x="184.6153846153846" y="57.142857142857146"></rect><rect width="61.53846153846154" height="57.142857142857146" x="246.15384615384616" y="57.142857142857146"></rect><rect width="61.53846153846154" height="57.142857142857146" x="307.6923076923077" y="57.142857142857146"></rect><rect width="61.53846153846154" height="57.142857142857146" x="369.2307692307692" y="57.142857142857146"></rect><rect width="61.53846153846154" height="57.142857142857146" x="430.7692307692308" y="57.142857142857146"></rect><rect width="61.53846153846154" height="57.142857142857146" x="492.3076923076923" y="57.142857142857146"></rect><rect width="61.53846153846154" height="57.142857142857146" x="553.8461538461538" y="57.142857142857146"></rect><rect width="61.53846153846154" height="57.142857142857146" x="615.3846153846154" y="57.142857142857146"></rect><rect width="61.53846153846154" height="57.142857142857146" x="676.9230769230769" y="57.142857142857146"></rect><rect width="61.53846153846154" height="57.142857142857146" x="738.4615384615385" y="57.142857142857146"></rect><rect width="61.53846153846154" height="57.142857142857146" x="800" y="57.142857142857146"></rect><rect width="61.53846153846154" height="57.142857142857146" x="0" y="114.28571428571429"></rect><rect width="61.53846153846154" height="57.142857142857146" x="61.53846153846154" y="114.28571428571429"></rect><rect width="61.53846153846154" height="57.142857142857146" x="123.07692307692308" y="114.28571428571429"></rect><rect width="61.53846153846154" height="57.142857142857146" x="184.6153846153846" y="114.28571428571429"></rect><rect width="61.53846153846154" height="57.142857142857146" x="246.15384615384616" y="114.28571428571429"></rect><rect width="61.53846153846154" height="57.142857142857146" x="307.6923076923077" y="114.28571428571429"></rect><rect width="61.53846153846154" height="57.142857142857146" x="369.2307692307692" y="114.28571428571429"></rect><rect width="61.53846153846154" height="57.142857142857146" x="430.7692307692308" y="114.28571428571429"></rect><rect width="61.53846153846154" height="57.142857142857146" x="492.3076923076923" y="114.28571428571429"></rect><rect width="61.53846153846154" height="57.142857142857146" x="553.8461538461538" y="114.28571428571429"></rect><rect width="61.53846153846154" height="57.142857142857146" x="615.3846153846154" y="114.28571428571429"></rect><rect width="61.53846153846154" height="57.142857142857146" x="676.9230769230769" y="114.28571428571429"></rect><rect width="61.53846153846154" height="57.142857142857146" x="738.4615384615385" y="114.28571428571429"></rect><rect width="61.53846153846154" height="57.142857142857146" x="800" y="114.28571428571429"></rect><rect width="61.53846153846154" height="57.142857142857146" x="0" y="171.42857142857144"></rect><rect width="61.53846153846154" height="57.142857142857146" x="61.53846153846154" y="171.42857142857144"></rect><rect width="61.53846153846154" height="57.142857142857146" x="123.07692307692308" y="171.42857142857144"></rect><rect width="61.53846153846154" height="57.142857142857146" x="184.6153846153846" y="171.42857142857144"></rect><rect width="61.53846153846154" height="57.142857142857146" x="246.15384615384616" y="171.42857142857144"></rect><rect width="61.53846153846154" height="57.142857142857146" x="307.6923076923077" y="171.42857142857144"></rect><rect width="61.53846153846154" height="57.142857142857146" x="369.2307692307692" y="171.42857142857144"></rect><rect width="61.53846153846154" height="57.142857142857146" x="430.7692307692308" y="171.42857142857144"></rect><rect width="61.53846153846154" height="57.142857142857146" x="492.3076923076923" y="171.42857142857144"></rect><rect width="61.53846153846154" height="57.142857142857146" x="553.8461538461538" y="171.42857142857144"></rect><rect width="61.53846153846154" height="57.142857142857146" x="615.3846153846154" y="171.42857142857144"></rect><rect width="61.53846153846154" height="57.142857142857146" x="676.9230769230769" y="171.42857142857144"></rect><rect width="61.53846153846154" height="57.142857142857146" x="738.4615384615385" y="171.42857142857144"></rect><rect width="61.53846153846154" height="57.142857142857146" x="800" y="171.42857142857144"></rect><rect width="61.53846153846154" height="57.142857142857146" x="0" y="228.57142857142858"></rect><rect width="61.53846153846154" height="57.142857142857146" x="61.53846153846154" y="228.57142857142858"></rect><rect width="61.53846153846154" height="57.142857142857146" x="123.07692307692308" y="228.57142857142858"></rect><rect width="61.53846153846154" height="57.142857142857146" x="184.6153846153846" y="228.57142857142858"></rect><rect width="61.53846153846154" height="57.142857142857146" x="246.15384615384616" y="228.57142857142858"></rect><rect width="61.53846153846154" height="57.142857142857146" x="307.6923076923077" y="228.57142857142858"></rect><rect width="61.53846153846154" height="57.142857142857146" x="369.2307692307692" y="228.57142857142858"></rect><rect width="61.53846153846154" height="57.142857142857146" x="430.7692307692308" y="228.57142857142858"></rect><rect width="61.53846153846154" height="57.142857142857146" x="492.3076923076923" y="228.57142857142858"></rect><rect width="61.53846153846154" height="57.142857142857146" x="553.8461538461538" y="228.57142857142858"></rect><rect width="61.53846153846154" height="57.142857142857146" x="615.3846153846154" y="228.57142857142858"></rect><rect width="61.53846153846154" height="57.142857142857146" x="676.9230769230769" y="228.57142857142858"></rect><rect width="61.53846153846154" height="57.142857142857146" x="738.4615384615385" y="228.57142857142858"></rect><rect width="61.53846153846154" height="57.142857142857146" x="800" y="228.57142857142858"></rect><rect width="61.53846153846154" height="57.142857142857146" x="0" y="285.7142857142857"></rect><rect width="61.53846153846154" height="57.142857142857146" x="61.53846153846154" y="285.7142857142857"></rect><rect width="61.53846153846154" height="57.142857142857146" x="123.07692307692308" y="285.7142857142857"></rect><rect width="61.53846153846154" height="57.142857142857146" x="184.6153846153846" y="285.7142857142857"></rect><rect width="61.53846153846154" height="57.142857142857146" x="246.15384615384616" y="285.7142857142857"></rect><rect width="61.53846153846154" height="57.142857142857146" x="307.6923076923077" y="285.7142857142857"></rect><rect width="61.53846153846154" height="57.142857142857146" x="369.2307692307692" y="285.7142857142857"></rect><rect width="61.53846153846154" height="57.142857142857146" x="430.7692307692308" y="285.7142857142857"></rect><rect width="61.53846153846154" height="57.142857142857146" x="492.3076923076923" y="285.7142857142857"></rect><rect width="61.53846153846154" height="57.142857142857146" x="553.8461538461538" y="285.7142857142857"></rect><rect width="61.53846153846154" height="57.142857142857146" x="615.3846153846154" y="285.7142857142857"></rect><rect width="61.53846153846154" height="57.142857142857146" x="676.9230769230769" y="285.7142857142857"></rect><rect width="61.53846153846154" height="57.142857142857146" x="738.4615384615385" y="285.7142857142857"></rect><rect width="61.53846153846154" height="57.142857142857146" x="800" y="285.7142857142857"></rect><rect width="61.53846153846154" height="57.142857142857146" x="0" y="342.8571428571429"></rect><rect width="61.53846153846154" height="57.142857142857146" x="61.53846153846154" y="342.8571428571429"></rect><rect width="61.53846153846154" height="57.142857142857146" x="123.07692307692308" y="342.8571428571429"></rect><rect width="61.53846153846154" height="57.142857142857146" x="184.6153846153846" y="342.8571428571429"></rect><rect width="61.53846153846154" height="57.142857142857146" x="246.15384615384616" y="342.8571428571429"></rect><rect width="61.53846153846154" height="57.142857142857146" x="307.6923076923077" y="342.8571428571429"></rect><rect width="61.53846153846154" height="57.142857142857146" x="369.2307692307692" y="342.8571428571429"></rect><rect width="61.53846153846154" height="57.142857142857146" x="430.7692307692308" y="342.8571428571429"></rect><rect width="61.53846153846154" height="57.142857142857146" x="492.3076923076923" y="342.8571428571429"></rect><rect width="61.53846153846154" height="57.142857142857146" x="553.8461538461538" y="342.8571428571429"></rect><rect width="61.53846153846154" height="57.142857142857146" x="615.3846153846154" y="342.8571428571429"></rect><rect width="61.53846153846154" height="57.142857142857146" x="676.9230769230769" y="342.8571428571429"></rect><rect width="61.53846153846154" height="57.142857142857146" x="738.4615384615385" y="342.8571428571429"></rect><rect width="61.53846153846154" height="57.142857142857146" x="800" y="342.8571428571429"></rect><rect width="61.53846153846154" height="57.142857142857146" x="0" y="400.00000000000006"></rect><rect width="61.53846153846154" height="57.142857142857146" x="61.53846153846154" y="400.00000000000006"></rect><rect width="61.53846153846154" height="57.142857142857146" x="123.07692307692308" y="400.00000000000006"></rect><rect width="61.53846153846154" height="57.142857142857146" x="184.6153846153846" y="400.00000000000006"></rect><rect width="61.53846153846154" height="57.142857142857146" x="246.15384615384616" y="400.00000000000006"></rect><rect width="61.53846153846154" height="57.142857142857146" x="307.6923076923077" y="400.00000000000006"></rect><rect width="61.53846153846154" height="57.142857142857146" x="369.2307692307692" y="400.00000000000006"></rect><rect width="61.53846153846154" height="57.142857142857146" x="430.7692307692308" y="400.00000000000006"></rect><rect width="61.53846153846154" height="57.142857142857146" x="492.3076923076923" y="400.00000000000006"></rect><rect width="61.53846153846154" height="57.142857142857146" x="553.8461538461538" y="400.00000000000006"></rect><rect width="61.53846153846154" height="57.142857142857146" x="615.3846153846154" y="400.00000000000006"></rect><rect width="61.53846153846154" height="57.142857142857146" x="676.9230769230769" y="400.00000000000006"></rect><rect width="61.53846153846154" height="57.142857142857146" x="738.4615384615385" y="400.00000000000006"></rect><rect width="61.53846153846154" height="57.142857142857146" x="800" y="400.00000000000006"></rect><rect width="61.53846153846154" height="57.142857142857146" x="0" y="457.1428571428572"></rect><rect width="61.53846153846154" height="57.142857142857146" x="61.53846153846154" y="457.1428571428572"></rect><rect width="61.53846153846154" height="57.142857142857146" x="123.07692307692308" y="457.1428571428572"></rect><rect width="61.53846153846154" height="57.142857142857146" x="184.6153846153846" y="457.1428571428572"></rect><rect width="61.53846153846154" height="57.142857142857146" x="246.15384615384616" y="457.1428571428572"></rect><rect width="61.53846153846154" height="57.142857142857146" x="307.6923076923077" y="457.1428571428572"></rect><rect width="61.53846153846154" height="57.142857142857146" x="369.2307692307692" y="457.1428571428572"></rect><rect width="61.53846153846154" height="57.142857142857146" x="430.7692307692308" y="457.1428571428572"></rect><rect width="61.53846153846154" height="57.142857142857146" x="492.3076923076923" y="457.1428571428572"></rect><rect width="61.53846153846154" height="57.142857142857146" x="553.8461538461538" y="457.1428571428572"></rect><rect width="61.53846153846154" height="57.142857142857146" x="615.3846153846154" y="457.1428571428572"></rect><rect width="61.53846153846154" height="57.142857142857146" x="676.9230769230769" y="457.1428571428572"></rect><rect width="61.53846153846154" height="57.142857142857146" x="738.4615384615385" y="457.1428571428572"></rect><rect width="61.53846153846154" height="57.142857142857146" x="800" y="457.1428571428572"></rect><rect width="61.53846153846154" height="57.142857142857146" x="0" y="514.2857142857143"></rect><rect width="61.53846153846154" height="57.142857142857146" x="61.53846153846154" y="514.2857142857143"></rect><rect width="61.53846153846154" height="57.142857142857146" x="123.07692307692308" y="514.2857142857143"></rect><rect width="61.53846153846154" height="57.142857142857146" x="184.6153846153846" y="514.2857142857143"></rect><rect width="61.53846153846154" height="57.142857142857146" x="246.15384615384616" y="514.2857142857143"></rect><rect width="61.53846153846154" height="57.142857142857146" x="307.6923076923077" y="514.2857142857143"></rect><rect width="61.53846153846154" height="57.142857142857146" x="369.2307692307692" y="514.2857142857143"></rect><rect width="61.53846153846154" height="57.142857142857146" x="430.7692307692308" y="514.2857142857143"></rect><rect width="61.53846153846154" height="57.142857142857146" x="492.3076923076923" y="514.2857142857143"></rect><rect width="61.53846153846154" height="57.142857142857146" x="553.8461538461538" y="514.2857142857143"></rect><rect width="61.53846153846154" height="57.142857142857146" x="615.3846153846154" y="514.2857142857143"></rect><rect width="61.53846153846154" height="57.142857142857146" x="676.9230769230769" y="514.2857142857143"></rect><rect width="61.53846153846154" height="57.142857142857146" x="738.4615384615385" y="514.2857142857143"></rect><rect width="61.53846153846154" height="57.142857142857146" x="800" y="514.2857142857143"></rect><rect width="61.53846153846154" height="57.142857142857146" x="0" y="571.4285714285714"></rect><rect width="61.53846153846154" height="57.142857142857146" x="61.53846153846154" y="571.4285714285714"></rect><rect width="61.53846153846154" height="57.142857142857146" x="123.07692307692308" y="571.4285714285714"></rect><rect width="61.53846153846154" height="57.142857142857146" x="184.6153846153846" y="571.4285714285714"></rect><rect width="61.53846153846154" height="57.142857142857146" x="246.15384615384616" y="571.4285714285714"></rect><rect width="61.53846153846154" height="57.142857142857146" x="307.6923076923077" y="571.4285714285714"></rect><rect width="61.53846153846154" height="57.142857142857146" x="369.2307692307692" y="571.4285714285714"></rect><rect width="61.53846153846154" height="57.142857142857146" x="430.7692307692308" y="571.4285714285714"></rect><rect width="61.53846153846154" height="57.142857142857146" x="492.3076923076923" y="571.4285714285714"></rect><rect width="61.53846153846154" height="57.142857142857146" x="553.8461538461538" y="571.4285714285714"></rect><rect width="61.53846153846154" height="57.142857142857146" x="615.3846153846154" y="571.4285714285714"></rect><rect width="61.53846153846154" height="57.142857142857146" x="676.9230769230769" y="571.4285714285714"></rect><rect width="61.53846153846154" height="57.142857142857146" x="738.4615384615385" y="571.4285714285714"></rect><rect width="61.53846153846154" height="57.142857142857146" x="800" y="571.4285714285714"></rect><rect width="61.53846153846154" height="57.142857142857146" x="0" y="628.5714285714286"></rect><rect width="61.53846153846154" height="57.142857142857146" x="61.53846153846154" y="628.5714285714286"></rect><rect width="61.53846153846154" height="57.142857142857146" x="123.07692307692308" y="628.5714285714286"></rect><rect width="61.53846153846154" height="57.142857142857146" x="184.6153846153846" y="628.5714285714286"></rect><rect width="61.53846153846154" height="57.142857142857146" x="246.15384615384616" y="628.5714285714286"></rect><rect width="61.53846153846154" height="57.142857142857146" x="307.6923076923077" y="628.5714285714286"></rect><rect width="61.53846153846154" height="57.142857142857146" x="369.2307692307692" y="628.5714285714286"></rect><rect width="61.53846153846154" height="57.142857142857146" x="430.7692307692308" y="628.5714285714286"></rect><rect width="61.53846153846154" height="57.142857142857146" x="492.3076923076923" y="628.5714285714286"></rect><rect width="61.53846153846154" height="57.142857142857146" x="553.8461538461538" y="628.5714285714286"></rect><rect width="61.53846153846154" height="57.142857142857146" x="615.3846153846154" y="628.5714285714286"></rect><rect width="61.53846153846154" height="57.142857142857146" x="676.9230769230769" y="628.5714285714286"></rect><rect width="61.53846153846154" height="57.142857142857146" x="738.4615384615385" y="628.5714285714286"></rect><rect width="61.53846153846154" height="57.142857142857146" x="800" y="628.5714285714286"></rect><rect width="61.53846153846154" height="57.142857142857146" x="0" y="685.7142857142857"></rect><rect width="61.53846153846154" height="57.142857142857146" x="61.53846153846154" y="685.7142857142857"></rect><rect width="61.53846153846154" height="57.142857142857146" x="123.07692307692308" y="685.7142857142857"></rect><rect width="61.53846153846154" height="57.142857142857146" x="184.6153846153846" y="685.7142857142857"></rect><rect width="61.53846153846154" height="57.142857142857146" x="246.15384615384616" y="685.7142857142857"></rect><rect width="61.53846153846154" height="57.142857142857146" x="307.6923076923077" y="685.7142857142857"></rect><rect width="61.53846153846154" height="57.142857142857146" x="369.2307692307692" y="685.7142857142857"></rect><rect width="61.53846153846154" height="57.142857142857146" x="430.7692307692308" y="685.7142857142857"></rect><rect width="61.53846153846154" height="57.142857142857146" x="492.3076923076923" y="685.7142857142857"></rect><rect width="61.53846153846154" height="57.142857142857146" x="553.8461538461538" y="685.7142857142857"></rect><rect width="61.53846153846154" height="57.142857142857146" x="615.3846153846154" y="685.7142857142857"></rect><rect width="61.53846153846154" height="57.142857142857146" x="676.9230769230769" y="685.7142857142857"></rect><rect width="61.53846153846154" height="57.142857142857146" x="738.4615384615385" y="685.7142857142857"></rect><rect width="61.53846153846154" height="57.142857142857146" x="800" y="685.7142857142857"></rect><rect width="61.53846153846154" height="57.142857142857146" x="0" y="742.8571428571428"></rect><rect width="61.53846153846154" height="57.142857142857146" x="61.53846153846154" y="742.8571428571428"></rect><rect width="61.53846153846154" height="57.142857142857146" x="123.07692307692308" y="742.8571428571428"></rect><rect width="61.53846153846154" height="57.142857142857146" x="184.6153846153846" y="742.8571428571428"></rect><rect width="61.53846153846154" height="57.142857142857146" x="246.15384615384616" y="742.8571428571428"></rect><rect width="61.53846153846154" height="57.142857142857146" x="307.6923076923077" y="742.8571428571428"></rect><rect width="61.53846153846154" height="57.142857142857146" x="369.2307692307692" y="742.8571428571428"></rect><rect width="61.53846153846154" height="57.142857142857146" x="430.7692307692308" y="742.8571428571428"></rect><rect width="61.53846153846154" height="57.142857142857146" x="492.3076923076923" y="742.8571428571428"></rect><rect width="61.53846153846154" height="57.142857142857146" x="553.8461538461538" y="742.8571428571428"></rect><rect width="61.53846153846154" height="57.142857142857146" x="615.3846153846154" y="742.8571428571428"></rect><rect width="61.53846153846154" height="57.142857142857146" x="676.9230769230769" y="742.8571428571428"></rect><rect width="61.53846153846154" height="57.142857142857146" x="738.4615384615385" y="742.8571428571428"></rect><rect width="61.53846153846154" height="57.142857142857146" x="800" y="742.8571428571428"></rect><rect width="61.53846153846154" height="57.142857142857146" x="0" y="799.9999999999999"></rect><rect width="61.53846153846154" height="57.142857142857146" x="61.53846153846154" y="799.9999999999999"></rect><rect width="61.53846153846154" height="57.142857142857146" x="123.07692307692308" y="799.9999999999999"></rect><rect width="61.53846153846154" height="57.142857142857146" x="184.6153846153846" y="799.9999999999999"></rect><rect width="61.53846153846154" height="57.142857142857146" x="246.15384615384616" y="799.9999999999999"></rect><rect width="61.53846153846154" height="57.142857142857146" x="307.6923076923077" y="799.9999999999999"></rect><rect width="61.53846153846154" height="57.142857142857146" x="369.2307692307692" y="799.9999999999999"></rect><rect width="61.53846153846154" height="57.142857142857146" x="430.7692307692308" y="799.9999999999999"></rect><rect width="61.53846153846154" height="57.142857142857146" x="492.3076923076923" y="799.9999999999999"></rect><rect width="61.53846153846154" height="57.142857142857146" x="553.8461538461538" y="799.9999999999999"></rect><rect width="61.53846153846154" height="57.142857142857146" x="615.3846153846154" y="799.9999999999999"></rect><rect width="61.53846153846154" height="57.142857142857146" x="676.9230769230769" y="799.9999999999999"></rect><rect width="61.53846153846154" height="57.142857142857146" x="738.4615384615385" y="799.9999999999999"></rect><rect width="61.53846153846154" height="57.142857142857146" x="800" y="799.9999999999999"></rect></g></svg>